<svg xmlns="http://www.w3.org/2000/svg" width="960" height="220" viewBox="0 0 960 220" role="img" aria-labelledby="title desc">
  <title id="title">Nils Tinner. Bern, Switzerland.</title>
  <desc id="desc">The actual course of the Aare around Bern's old town, with north at the top. Bern is marked at 46.9480 degrees north, 7.4474 degrees east. River geometry from OpenStreetMap contributors, licensed under ODbL. https://www.openstreetmap.org/copyright</desc>
  <rect width="960" height="220" fill="#f4f2ea"/>
  <path d="M708.7 163.7L709.8 158.9 M709.8 158.9L711.6 155.1 M711.6 155.1L713.9 151.5 M713.9 151.5L716.7 148.8 M716.7 148.8L721.4 145.8 M721.4 145.8L725.5 144.3 M725.5 144.3L730.2 142.9 M730.2 142.9L741.0 142.0 M741.0 142.0L750.8 142.0 M750.8 142.0L760.8 143.1 M760.8 143.1L761.2 144.1 M761.2 144.1L762.6 147.2 M762.6 147.2L765.1 151.9 M765.1 151.9L767.2 154.0 M767.2 154.0L771.0 155.9 M771.0 155.9L775.0 157.3 M775.0 157.3L779.2 157.9 M779.2 157.9L783.7 157.8 M783.7 157.8L786.5 157.3 M786.5 157.3L790.2 155.8 M790.2 155.8L796.8 151.8 M796.8 151.8L810.2 143.9 M810.2 143.9L829.1 133.1 M829.1 133.1L833.0 129.7 M833.0 129.7L837.0 124.8 M837.0 124.8L839.4 119.0 M839.4 119.0L840.0 114.3 M840.0 114.3L839.6 104.9 M839.6 104.9L839.6 101.8 M839.6 101.8L839.6 91.9 M839.6 91.9L838.9 87.3 M838.9 87.3L837.5 84.3 M837.5 84.3L835.2 80.9 M835.2 80.9L832.0 78.1 M832.0 78.1L826.2 76.1 M826.2 76.1L817.5 75.1 M817.5 75.1L809.6 75.8 M809.6 75.8L807.8 76.0 M807.8 76.0L801.9 76.8 M801.9 76.8L781.8 80.7 M781.8 80.7L767.4 83.1 M767.4 83.1L755.5 82.6 M755.5 82.6L743.4 79.6 M743.4 79.6L726.6 71.6 M726.6 71.6L713.3 65.3 M713.3 65.3L702.1 57.1 M702.1 57.1L694.9 49.9 M694.9 49.9L681.3 35.3 M681.3 35.3L673.0 25.6 M673.0 25.6L665.5 11.6 M665.5 11.6L661.1 -3.6 M661.1 -3.6L661.3 -23.8 M821.7 132.2L822.7 133.0 M822.7 133.0L822.9 133.1 M822.9 133.1L823.0 133.2 M823.0 133.2L823.2 133.3 M823.2 133.3L823.4 133.3 M823.4 133.3L829.1 133.1 M811.2 132.3L811.4 132.2 M811.4 132.2L811.5 132.2 M811.5 132.2L811.6 132.2 M811.6 132.2L815.8 132.3 M815.8 132.3L815.9 132.3 M815.9 132.3L816.1 132.3 M816.1 132.3L819.1 131.3 M819.1 131.3L820.3 131.1 M820.3 131.1L821.0 131.6 M821.0 131.6L821.7 132.2 M697.4 241.0L705.2 192.1 M705.2 192.1L708.7 163.7 M760.8 143.1L781.6 140.4 M781.6 140.4L806.2 133.7 M806.2 133.7L811.2 132.3" fill="none" stroke="#218a7d" stroke-width="4" stroke-linecap="round" stroke-linejoin="round"/>
  <circle cx="725.6" cy="109.0" r="4.5" fill="#bd5238"/>
  <g fill="#253d38" font-family="Helvetica, Arial, sans-serif">
    <text x="42" y="89" font-size="42" font-weight="600" letter-spacing="-1">Nils Tinner</text>
    <text x="44" y="123" font-size="13" letter-spacing="2">BERN, SWITZERLAND</text>
    <text x="44" y="171" font-size="13" letter-spacing="1">46.9480° N · 7.4474° E</text>
    <text x="711.6" y="96.0" font-size="9" letter-spacing="1">BERN</text>
    <text x="862" y="134" font-size="11" letter-spacing="2" fill="#218a7d">AARE</text>
    <text x="944" y="207" text-anchor="end" font-size="9" fill="#5d6e66">© OpenStreetMap contributors</text>
  </g>
</svg>
